<?xml version="1.0" encoding="UTF-8" standalone="no"?>
<!-- Created with Inkscape (http://www.inkscape.org/) -->

<svg
   width="210mm"
   height="500mm"
   viewBox="0 0 210 500"
   version="1.1"
   id="svg1"
   inkscape:version="1.4 (e7c3feb100, 2024-10-09)"
   sodipodi:docname="score.svg"
   xmlns:inkscape="http://www.inkscape.org/namespaces/inkscape"
   xmlns:sodipodi="http://sodipodi.sourceforge.net/DTD/sodipodi-0.dtd"
   xmlns="http://www.w3.org/2000/svg"
   xmlns:svg="http://www.w3.org/2000/svg">
  <sodipodi:namedview
     id="namedview1"
     pagecolor="#ffffff"
     bordercolor="#000000"
     borderopacity="0.25"
     inkscape:showpageshadow="2"
     inkscape:pageopacity="0.0"
     inkscape:pagecheckerboard="0"
     inkscape:deskcolor="#d1d1d1"
     inkscape:document-units="mm"
     inkscape:zoom="1.2977183"
     inkscape:cx="396.85039"
     inkscape:cy="86.69062"
     inkscape:window-width="1912"
     inkscape:window-height="1052"
     inkscape:window-x="0"
     inkscape:window-y="0"
     inkscape:window-maximized="0"
     inkscape:current-layer="layer1"
     showgrid="false">
    <inkscape:grid
       id="grid1"
       units="mm"
       originx="0"
       originy="0"
       spacingx="0.99999998"
       spacingy="1"
       empcolor="#0099e5"
       empopacity="0.30196078"
       color="#0099e5"
       opacity="0.14901961"
       empspacing="5"
       dotted="false"
       gridanglex="30"
       gridanglez="30"
       visible="false" />
  </sodipodi:namedview>
  <defs
     id="defs1">
    <linearGradient
       id="swatch8"
       inkscape:swatch="solid">
      <stop
         style="stop-color:#000000;stop-opacity:1;"
         offset="0"
         id="stop8" />
    </linearGradient>
    <linearGradient
       id="swatch7"
       inkscape:swatch="solid">
      <stop
         style="stop-color:#000000;stop-opacity:1;"
         offset="0"
         id="stop7" />
    </linearGradient>
    <linearGradient
       id="swatch6"
       inkscape:swatch="solid">
      <stop
         style="stop-color:#ff8080;stop-opacity:1;"
         offset="0"
         id="stop6" />
    </linearGradient>
  </defs>
  <g
     inkscape:label="Layer 1"
     inkscape:groupmode="layer"
     id="layer1">
    <rect
       style="fill:none;fill-opacity:1;fill-rule:evenodd;stroke:#000000;stroke-width:0.564999;stroke-dasharray:none;stroke-dashoffset:0;stroke-opacity:1;paint-order:markers fill stroke"
       id="rect4"
       width="205.04584"
       height="42.954811"
       x="1.7935568"
       y="5.9075212">
      <desc
         id="desc4">duration 1000, start 0,</desc>
    </rect>
    <path
       style="opacity:0.831824;fill:none;fill-rule:evenodd;stroke:#ff0000;stroke-width:1.3;stroke-opacity:1"
       d="m 9.9902911,37.310679 c 2.1517949,-3.013821 3.7964139,-6.395318 5.7087379,-9.582523 0.407767,-0.679612 0.742977,-1.408411 1.223301,-2.038836 2.991078,-3.92579 8.008498,-6.538429 12.84466,-4.281553 0.394338,0.184024 0.689017,0.532333 1.019418,0.815534 0.621345,0.532582 1.237927,1.071357 1.834952,1.631068 2.118437,1.986034 3.988511,4.145307 5.91262,6.320389 3.630223,4.10373 6.586235,8.136749 12.640778,6.320388 0.524811,-0.157443 0.951455,-0.54369 1.427183,-0.815534 2.984151,-1.705229 4.654744,-4.437858 6.932039,-6.932041 2.10077,-2.300841 4.596971,-4.231825 7.339806,-5.708736 1.826506,-0.983504 3.533653,-0.548567 5.504855,-0.407767 1.341067,0.09579 2.813097,-0.190127 4.077668,-0.611651 2.707515,-0.902505 5.069663,-2.713506 7.747574,-3.669903 1.05574,-0.37705 0.769136,-0.125526 1.631066,-0.203883 2.243466,-0.203951 4.489395,-0.127922 6.728156,-0.407767 1.020498,-0.127562 2.043808,-0.238693 3.058252,-0.407767 1.856658,-0.309443 3.634822,-0.973964 5.504853,-1.223301 1.47103,-0.196137 2.98863,0.291931 4.48544,0.203883 2.05625,-0.120955 4.2484,-0.434103 6.32039,-0.203883 0.62274,0.06919 1.21388,0.324957 1.83495,0.407767 0.0831,0.01108 2.0489,-0.0092 2.24272,0 2.7418,0.130562 5.42775,0.363688 8.15534,0.61165 0.32793,0.02981 5.17441,0.327618 5.70873,0.407767 1.60075,0.240111 3.15713,0.95574 4.68932,1.427185 0.33122,0.101911 0.69767,0.07518 1.01942,0.203883 0.0631,0.02524 -0.0377,0.147337 0,0.203884 0.24139,0.362078 0.55021,0.674496 0.81554,1.019417 0.41436,0.538677 0.77179,1.12312 1.2233,1.631068 0.63853,0.718347 1.38584,1.333606 2.03883,2.038835 3.42411,3.698037 6.49257,7.610423 10.39806,10.805825 2.82331,2.309976 4.71253,4.183313 8.56311,3.669903 1.61923,-0.215898 2.94544,-1.40765 4.28155,-2.242717 5.49369,-3.433556 1.22306,-0.685625 5.30097,-3.466021 4.2548,-2.900997 8.6771,-5.667803 12.64078,-8.970873 0.62868,-0.523902 1.2233,-1.087379 1.83495,-1.631068 0.74757,-0.747573 1.43717,-1.558007 2.24272,-2.242719 0.56011,-0.476094 1.25101,-0.776757 1.83495,-1.223301 0.57387,-0.438844 1.03483,-1.019235 1.63107,-1.427184 2.59196,-1.773446 1.47338,-0.807373 3.6699,-1.631068 0.71806,-0.269272 2.44911,-1.13682 3.26214,-1.427185 2.41455,-0.862341 5.01826,-0.815534 7.54368,-0.815534"
       id="path14" />
    <ellipse
       style="opacity:0.831824;fill:none;fill-rule:evenodd;stroke:#ff0000;stroke-width:1.3;stroke-opacity:1"
       id="path15"
       cx="105.5097"
       cy="37.718445"
       rx="4.9951453"
       ry="5.9126215" />
  </g>
</svg>
