<?xml version="1.0" encoding="UTF-8" standalone="no"?>
<!-- Created with Inkscape (http://www.inkscape.org/) -->

<svg
   width="210mm"
   height="500mm"
   viewBox="0 0 210 500"
   version="1.1"
   id="svg1"
   inkscape:version="1.4.1 (93de688d07, 2025-03-30)"
   sodipodi:docname="score.svg"
   xmlns:inkscape="http://www.inkscape.org/namespaces/inkscape"
   xmlns:sodipodi="http://sodipodi.sourceforge.net/DTD/sodipodi-0.dtd"
   xmlns="http://www.w3.org/2000/svg"
   xmlns:svg="http://www.w3.org/2000/svg">
  <sodipodi:namedview
     id="namedview1"
     pagecolor="#ffffff"
     bordercolor="#000000"
     borderopacity="0.25"
     inkscape:showpageshadow="2"
     inkscape:pageopacity="0.0"
     inkscape:pagecheckerboard="0"
     inkscape:deskcolor="#d1d1d1"
     inkscape:document-units="mm"
     inkscape:zoom="1.0894425"
     inkscape:cx="352.01489"
     inkscape:cy="205.60974"
     inkscape:window-width="1888"
     inkscape:window-height="1035"
     inkscape:window-x="0"
     inkscape:window-y="0"
     inkscape:window-maximized="0"
     inkscape:current-layer="layer1"
     showgrid="false">
    <inkscape:grid
       id="grid1"
       units="mm"
       originx="0"
       originy="0"
       spacingx="0.99999998"
       spacingy="1"
       empcolor="#0099e5"
       empopacity="0.30196078"
       color="#0099e5"
       opacity="0.14901961"
       empspacing="5"
       dotted="false"
       gridanglex="30"
       gridanglez="30"
       visible="false" />
  </sodipodi:namedview>
  <defs
     id="defs1">
    <linearGradient
       id="swatch8"
       inkscape:swatch="solid">
      <stop
         style="stop-color:#000000;stop-opacity:1;"
         offset="0"
         id="stop8" />
    </linearGradient>
    <linearGradient
       id="swatch7"
       inkscape:swatch="solid">
      <stop
         style="stop-color:#000000;stop-opacity:1;"
         offset="0"
         id="stop7" />
    </linearGradient>
    <linearGradient
       id="swatch6"
       inkscape:swatch="solid">
      <stop
         style="stop-color:#ff8080;stop-opacity:1;"
         offset="0"
         id="stop6" />
    </linearGradient>
  </defs>
  <g
     inkscape:label="Layer 1"
     inkscape:groupmode="layer"
     id="layer1">
    <rect
       style="fill:none;fill-opacity:1;fill-rule:evenodd;stroke:#000000;stroke-width:0.564999;stroke-dasharray:none;stroke-dashoffset:0;stroke-opacity:1;paint-order:markers fill stroke"
       id="rect4"
       width="205.04584"
       height="42.954811"
       x="1.5506957"
       y="28.493614">
      <desc
         id="desc4">duration 1000, start 0,</desc>
    </rect>
    <ellipse
       style="fill:#ff0000;fill-rule:evenodd;stroke:none;stroke-width:0.195;stroke-dasharray:none"
       id="path3"
       cx="204.65114"
       cy="68.649353"
       rx="1.3704377"
       ry="1.5728889" />
    <ellipse
       style="fill:#ff0000;fill-rule:evenodd;stroke:none;stroke-width:0.195;stroke-dasharray:none"
       id="path3-3"
       cx="168.60883"
       cy="53.792316"
       rx="1.3704377"
       ry="1.5728889" />
    <ellipse
       style="fill:#ff0000;fill-rule:evenodd;stroke:none;stroke-width:0.195;stroke-dasharray:none"
       id="path3-1"
       cx="97.171326"
       cy="48.236065"
       rx="1.3704377"
       ry="1.5728889" />
    <ellipse
       style="fill:#ff0000;fill-rule:evenodd;stroke:none;stroke-width:0.195;stroke-dasharray:none"
       id="path3-36"
       cx="34.994244"
       cy="55.115234"
       rx="1.3704377"
       ry="1.5728889" />
    <ellipse
       style="fill:#ff0000;fill-rule:evenodd;stroke:none;stroke-width:0.195;stroke-dasharray:none"
       id="path3-18"
       cx="137.65257"
       cy="39.769398"
       rx="1.3704377"
       ry="1.5728889" />
    <ellipse
       style="fill:#ff0000;fill-rule:evenodd;stroke:none;stroke-width:0.195;stroke-dasharray:none"
       id="path3-2"
       cx="67.008827"
       cy="59.348568"
       rx="1.3704377"
       ry="1.5728889" />
    <ellipse
       style="fill:#ff0000;fill-rule:evenodd;stroke:none;stroke-width:0.195;stroke-dasharray:none"
       id="path3-22"
       cx="40.285904"
       cy="39.504814"
       rx="1.3704377"
       ry="1.5728889" />
    <ellipse
       style="fill:#ff0000;fill-rule:evenodd;stroke:none;stroke-width:0.195;stroke-dasharray:none"
       id="path3-6"
       cx="12.240076"
       cy="52.733982"
       rx="1.3704377"
       ry="1.5728889" />
    <ellipse
       style="fill:#ff0000;fill-rule:evenodd;stroke:none;stroke-width:0.195;stroke-dasharray:none"
       id="path3-19"
       cx="6.1546559"
       cy="64.904816"
       rx="1.3704377"
       ry="1.5728889" />
    <ellipse
       style="fill:#ff0000;fill-rule:evenodd;stroke:none;stroke-width:0.195;stroke-dasharray:none"
       id="path3-5"
       cx="28.379656"
       cy="38.711063"
       rx="1.3704377"
       ry="1.5728889" />
    <ellipse
       style="fill:#ff0000;fill-rule:evenodd;stroke:none;stroke-width:0.195;stroke-dasharray:none"
       id="path3-0"
       cx="70.18383"
       cy="35.006897"
       rx="1.3704377"
       ry="1.5728889" />
    <ellipse
       style="fill:#ff0000;fill-rule:evenodd;stroke:none;stroke-width:0.195;stroke-dasharray:none"
       id="path3-61"
       cx="92.408829"
       cy="60.936066"
       rx="1.3704377"
       ry="1.5728889" />
    <ellipse
       style="fill:#ff0000;fill-rule:evenodd;stroke:none;stroke-width:0.195;stroke-dasharray:none"
       id="path3-65"
       cx="138.97549"
       cy="46.383984"
       rx="1.3704377"
       ry="1.5728889" />
    <ellipse
       style="fill:#ff0000;fill-rule:evenodd;stroke:none;stroke-width:0.195;stroke-dasharray:none"
       id="path3-4"
       cx="170.99008"
       cy="36.858982"
       rx="1.3704377"
       ry="1.5728889" />
    <ellipse
       style="fill:#ff0000;fill-rule:evenodd;stroke:none;stroke-width:0.195;stroke-dasharray:none"
       id="path3-7"
       cx="125.21716"
       cy="63.581902"
       rx="1.3704377"
       ry="1.5728889" />
    <path
       style="fill:none;fill-rule:evenodd;stroke:#2102de;stroke-width:0.195;stroke-dasharray:none;stroke-opacity:1"
       d="m 46.865571,69.815008 c 0.200708,-3.024857 0.757836,-6.034958 1.20482,-9.036146 0.209545,-1.406945 0.528971,-2.989037 0.602411,-4.457832 0.08175,-1.634963 -0.155162,-3.310578 0,-4.939757 0.13181,-1.384031 0.551207,-2.548708 0.963854,-3.855422 0.09973,-0.315801 0.124682,-0.653769 0.240964,-0.963856 0.126126,-0.336336 0.338703,-0.634437 0.481928,-0.963855 0.755401,-1.737421 1.203698,-3.481393 2.289156,-5.060241 0.707662,-1.029326 1.715709,-1.840362 2.650604,-2.650602 1.031316,-0.893808 2.059437,-1.807458 3.132529,-2.650603 0.953278,-0.749003 0.862208,-0.543932 1.927712,-1.325301 1.387012,-1.017143 0.03685,-0.266302 1.927709,-1.566265 0.755208,-0.519205 1.692116,-0.762027 2.53012,-1.084337 0.745469,-0.286719 1.384054,-0.754623 2.168676,-0.963855 1.56128,-0.416341 3.212923,-0.481928 4.819277,-0.481928 0.481928,0 0.968698,-0.06815 1.445784,0 1.243568,0.177653 3.221453,1.472554 4.096385,2.289157 0.720645,0.672602 1.376008,1.555864 2.048192,2.289156 0.408633,0.445783 0.843844,1.051863 1.325301,1.445783 1.344363,1.099932 3.542384,2.018139 5.180724,2.53012 1.641157,0.512862 0.667078,-0.107352 2.891565,1.084338 1.87592,1.004957 3.32604,2.526296 4.578313,4.216867 0.738513,0.996992 1.298196,2.132536 2.048192,3.13253"
       id="path4" />
  </g>
</svg>
